<?xml version="1.0" encoding="UTF-8" standalone="no"?>
<!-- Created with Inkscape (http://www.inkscape.org/) -->

<svg
   version="1.1"
   id="svg1"
   width="500"
   height="661.33331"
   viewBox="0 0 500 661.33331"
   xml:space="preserve"
   xmlns:xlink="http://www.w3.org/1999/xlink"
   xmlns="http://www.w3.org/2000/svg"
   xmlns:svg="http://www.w3.org/2000/svg"><defs
     id="defs1" /><g
     id="layer1"><image
       width="500"
       height="661.33331"
       preserveAspectRatio="none"
       id="image1-0"
       x="0"
       y="0" /></g><path
     style="fill:#ffd5d5;stroke-width:2.5"
     d="m 168.75787,658.54817 10.1628,-39.305 10.15153,-53.29552 32.35799,-50.12317 34.89588,-35.53034 22.20646,-12.68941 7.61365,-21.572 8.88258,8.24812 6.34471,14.59282 1.90341,12.68941 17.1307,7.61364 10.15153,14.59282 19.66858,7.61365 10.786,15.22729 17.1307,10.786 15.86177,12.05494 11.42046,14.59282 3.80683,12.68941 14.59282,16.49623 10.15152,11.42047 15.2273,7.61364 10.15152,10.15153 15.22729,8.88259 26.64776,15.86176 -1.90341,15.22729 -331.19358,1.26894 z"
     id="path1" /><path
     style="fill:#ffd5d5;stroke-width:2.5"
     d="m 291.85641,438.41909 35.53035,-13.95835 40.60611,-9.51706 50.75763,-23.47541 43.14399,-16.49623 44.41294,-44.41293 -2.53789,314.06288 -93.26715,-68.52281 -2.53788,-22.84094 -46.95082,-33.62693 -13.95835,-15.86177 -16.49623,-6.3447 -11.42047,-15.86176 -12.05494,-10.15153 z"
     id="path2" /><path
     style="fill:#ffd5d5;stroke-width:2.5"
     d="m 176.38279,551.9893 66.6194,-78.67434 24.74434,-15.22729 12.05494,-19.66858 37.43376,-17.13071 55.19893,-13.32387 60.27469,-26.64776 27.28223,-10.786 34.26141,-32.99247 -40.60611,-3.17235 -34.26141,-19.03411 -10.78599,8.24811 -31.08906,5.07577 -18.39964,18.39964 h -15.22729 l -3.80682,4.44129 -30.45459,12.05494 -52.02657,1.90341 -13.32388,11.42047 -62.17811,85.65351 -6.3447,24.74435 z"
     id="path3" /><path
     style="fill:#ffd5d5;stroke-width:2.5"
     d="m 361.01369,181.45855 -8.24811,15.22729 -30.45459,0.63447 -34.2614,55.8334 -21.572,25.37882 -21.57199,69.15728 0.63447,13.32388 51.3921,-6.97917 43.144,-11.42047 20.30305,-7.61365 20.93753,-12.68941 36.16481,-11.42046 21.572,8.24811 19.66858,9.51706 28.55117,4.44129 5.07577,0.63447 15.86176,-13.32388 -3.80682,-101.51527 -11.42047,3.17235 -30.45459,-13.32388 -15.86176,-1.26894 -52.66104,-20.30305 z"
     id="path4" /><path
     style="fill:#ffd5d5;stroke-width:2.5"
     d="m 421.28838,-3.1723523 5.71024,14.5928203 -3.17235,11.420469 -13.95835,32.357993 -6.97918,24.109877 -2.53788,29.185643 -3.80682,23.47541 -15.86176,21.57199 -1.90342,10.786 -10.15152,10.786 8.88258,5.07576 18.39965,3.80682 23.4754,6.97918 20.93753,9.51706 8.24811,3.17235 17.13071,2.53788 24.10987,10.15153 13.95835,-3.17236 -1.26894,-221.430186 z"
     id="path5" /><path
     style="fill:#ffd5d5;stroke-width:2.5"
     d="m 164.05441,414.67629 17.55564,3.6322 35.71665,-41.77031 33.90054,-86.56746 23.60931,-39.95421 18.76637,-17.55564 27.24151,-41.77031 32.68981,-3.02684 18.161,-22.39857 14.52881,-27.84688 7.2644,-8.47513 v -7.2644 L 337.18933,120.468 h -34.50591 l -26.63614,26.63614 -46.00788,4.23757 -12.10734,10.8966 -46.61324,15.73954 -29.66298,136.20754 14.52881,99.88553 z"
     id="path6" /><path
     style="fill:#ffd5d5;stroke-width:2.5"
     d="m 162.23831,124.70557 4.84294,41.77031 4.23757,1.8161 0.60536,2.42147 46.00788,-13.92344 18.76638,-12.10733 34.50591,-3.02684 34.50591,-26.63614 29.0576,1.21073 h 36.32201 l 21.18784,1.8161 1.21074,-1.21073 9.68587,-55.693749 20.58247,-45.402513 -6.65904,-20.5824727 -153.76317,1.8161005 -3.6322,15.7395382 -13.92344,24.214673 -10.29124,10.291237 -16.95027,1.8161 -15.73954,14.528804 1.21074,20.582473 -15.73954,10.896603 1.21073,9.685866 -12.10734,9.08051 z"
     id="path7" /><path
     style="fill:#ffd5d5;stroke-width:2.5"
     d="m -7.2644021,282.70632 23.0039401,19.37173 22.398573,4.84294 22.398573,-9.0805 14.528804,19.37174 30.873712,12.10733 29.66297,-70.22255 17.55564,-76.88159 -4.23757,-58.72058 33.90055,-29.66298 16.95027,-35.111276 23.00394,-18.766372 9.68587,1.210733 24.21467,-29.057608 2.42147,-17.5556386 -264.5453116,3.0268342 z"
     id="path8" /><path
     style="fill:#ffd5d5;stroke-width:2.5"
     d="m 115.0197,595.07561 15.13417,-106.54457 v -60.53668 l -21.79321,-88.98893 -39.954207,-16.3449 -6.659035,-13.92344 -13.923437,1.8161 -32.68981,-2.42147 -16.9502715,-13.92343 0.6053668,367.45767 105.3338337,0.60536 z"
     id="path9" /></svg>
